<?xml version="1.0" encoding="UTF-8" standalone="no"?>
<svg
   xmlns:dc="http://purl.org/dc/elements/1.1/"
   xmlns:cc="http://creativecommons.org/ns#"
   xmlns:rdf="http://www.w3.org/1999/02/22-rdf-syntax-ns#"
   xmlns:svg="http://www.w3.org/2000/svg"
   xmlns="http://www.w3.org/2000/svg"
   xmlns:sodipodi="http://sodipodi.sourceforge.net/DTD/sodipodi-0.dtd"
   xmlns:inkscape="http://www.inkscape.org/namespaces/inkscape"
   width="256"
   height="256"
   viewBox="0 0 256 256"
   id="svg2"
   version="1.1"
   inkscape:version="0.91 r13725"
   sodipodi:docname="logo_square.svg"
   inkscape:export-filename="/home/hedgeberg/Documents/pcbs/HACk-EMMC/logo_square.svg.png"
   inkscape:export-xdpi="90"
   inkscape:export-ydpi="90">
  <metadata
     id="metadata14">
    <rdf:RDF>
      <cc:Work
         rdf:about="">
        <dc:format>image/svg+xml</dc:format>
        <dc:type
           rdf:resource="http://purl.org/dc/dcmitype/StillImage" />
      </cc:Work>
    </rdf:RDF>
  </metadata>
  <defs
     id="defs12" />
  <sodipodi:namedview
     pagecolor="#ffffff"
     bordercolor="#666666"
     borderopacity="1"
     objecttolerance="10"
     gridtolerance="10"
     guidetolerance="10"
     inkscape:pageopacity="0"
     inkscape:pageshadow="2"
     inkscape:window-width="1920"
     inkscape:window-height="1056"
     id="namedview10"
     showgrid="false"
     inkscape:zoom="1.84375"
     inkscape:cx="96.2902"
     inkscape:cy="120.41149"
     inkscape:window-x="0"
     inkscape:window-y="24"
     inkscape:window-maximized="1"
     inkscape:current-layer="layer2" />
  <g
     inkscape:groupmode="layer"
     id="layer2"
     inkscape:label="Layer 2"
     style="display:inline">
    <rect
       style="display:inline;fill:#feffff;fill-opacity:1;fill-rule:nonzero;stroke:#ffffff;stroke-width:0.43756908;stroke-miterlimit:4;stroke-dasharray:none;stroke-opacity:1"
       id="rect4164"
       width="255.69908"
       height="256.06665"
       x="0.40681088"
       y="0.48163202" />
  </g>
  <g
     inkscape:groupmode="layer"
     id="layer1"
     inkscape:label="Layer 1"
     style="display:inline"
     sodipodi:insensitive="true">
    <g
       style="fill:#4bddb3;fill-rule:evenodd"
       transform="translate(32,48)"
       id="g4">
      <path
         d="m 72,144 -11.993003,0 C 44.538961,144 32,131.46101 32,115.993 L 32,94.343146 17.656854,80 32,65.656854 32,44.006997 C 32,28.538961 44.538992,16 60.006997,16 L 72,16 72,8 60.006997,8 C 40.120718,8 24,24.120678 24,44.006997 L 24,62.343146 9.8797178,76.463428 c -1.9525349,1.952535 -1.951313,5.121831 0,7.073144 L 24,97.656854 24,115.993 C 24,135.87928 40.120678,152 60.006997,152 L 72,152 72,144 Z M 4.2228635,70.806574 16,59.029437 16,44.006997 C 16,19.702342 35.702498,0 60.006997,0 L 71.997663,0 C 76.417232,0 80,3.5800761 80,7.9916525 l 0,8.0166945 C 80,20.422015 76.425652,24 71.997663,24 L 60.006997,24 C 48.95729,24 40,32.957219 40,44.006997 L 40,68.970563 28.970563,80 40,91.029437 40,115.993 C 40,127.04271 48.957219,136 60.006997,136 l 11.990666,0 C 76.417232,136 80,139.58008 80,143.99165 l 0,8.0167 C 80,156.42201 76.425652,160 71.997663,160 l -11.990666,0 C 35.702342,160 16,140.2975 16,115.993 L 16,100.97056 4.2228635,89.193426 c -5.07098551,-5.070985 -5.08124916,-13.305603 0,-18.386852 z M 152,91.029437 152,115.993 C 152,127.04271 143.04278,136 131.993,136 l -11.99066,0 C 115.58277,136 112,139.58008 112,143.99165 l 0,8.0167 c 0,4.41366 3.57435,7.99165 8.00234,7.99165 l 11.99066,0 C 156.29766,160 176,140.2975 176,115.993 l 0,-15.02244 11.77714,-11.777134 c 5.07098,-5.070985 5.08125,-13.305603 0,-18.386852 L 176,59.029437 176,44.006997 C 176,19.702342 156.2975,0 131.993,0 L 120.00234,0 C 115.58277,0 112,3.5800761 112,7.9916525 l 0,8.0166945 C 112,20.422015 115.57435,24 120.00234,24 L 131.993,24 C 143.04271,24 152,32.957219 152,44.006997 L 152,68.970563 163.02944,80 152,91.029437 Z"
         id="path6"
         style="fill:#000000;fill-opacity:1;fill-rule:nonzero"
         inkscape:connector-curvature="0" />
      <path
         d="m 72.648,111.402 c -0.368002,-0.39867 -0.552,-0.90466 -0.552,-1.518 l 0,-60.076 c 0,-0.67467 0.183998,-1.211331 0.552,-1.61 0.368002,-0.398669 0.858664,-0.598 1.472,-0.598 l 22.448,0 c 6.99204,0 12.46598,1.64065 16.422,4.922 3.95602,3.28135 5.934,8.049969 5.934,14.306 0,4.661357 -1.16532,8.494652 -3.496,11.5 -2.33068,3.005348 -5.58131,5.090661 -9.752,6.256 l 14.168,24.564 c 0.184,0.368 0.276,0.70533 0.276,1.012 0,0.49067 -0.184,0.92 -0.552,1.288 -0.368,0.368 -0.79733,0.552 -1.288,0.552 l -4.048,0 c -0.92001,0 -1.64066,-0.21466 -2.162,-0.644 -0.52134,-0.42933 -0.99666,-1.04266 -1.426,-1.84 L 97.12,85.964 l -16.376,0 0,23.92 c 0,0.61334 -0.214664,1.11933 -0.644,1.518 -0.429336,0.39867 -0.950664,0.598 -1.564,0.598 l -4.416,0 c -0.613336,0 -1.103998,-0.19933 -1.472,-0.598 z M 96.2,78.42 c 9.26138,0 13.892,-3.894628 13.892,-11.684 0,-7.789372 -4.63062,-11.684 -13.892,-11.684 l -15.456,0 0,23.368 15.456,0 z"
         id="path8"
         style="fill:#000000;fill-opacity:1"
         inkscape:connector-curvature="0" />
    </g>
  </g>
</svg>
