G04 #@! TF.FileFunction,Paste,Top*
%FSLAX46Y46*%
G04 Gerber Fmt 4.6, Leading zero omitted, Abs format (unit mm)*
G04 Created by KiCad (PCBNEW 4.0.4+dfsg1-stable) date Thu Sep  7 20:48:14 2017*
%MOMM*%
%LPD*%
G01*
G04 APERTURE LIST*
%ADD10C,0.100000*%
%ADD11R,0.900000X0.500000*%
%ADD12R,0.950000X0.220000*%
%ADD13R,0.950000X1.000000*%
G04 APERTURE END LIST*
D10*
D11*
X129476500Y-126531500D03*
X129476500Y-125031500D03*
X132016500Y-126531500D03*
X132016500Y-125031500D03*
X134556500Y-126531500D03*
X134556500Y-125031500D03*
X139636500Y-126531500D03*
X139636500Y-125031500D03*
X142176500Y-126543500D03*
X142176500Y-125043500D03*
X144716500Y-126531500D03*
X144716500Y-125031500D03*
X129476500Y-145149000D03*
X129476500Y-143649000D03*
X132016500Y-145161000D03*
X132016500Y-143661000D03*
X134556500Y-145212500D03*
X134556500Y-143712500D03*
X139636500Y-145212500D03*
X139636500Y-143712500D03*
X142176500Y-145212500D03*
X142176500Y-143712500D03*
X144716500Y-145212500D03*
X144716500Y-143712500D03*
D12*
X134064000Y-137927000D03*
X134064000Y-137527000D03*
X134064000Y-137127000D03*
X134064000Y-136727000D03*
X134064000Y-136327000D03*
X134064000Y-135927000D03*
X134064000Y-135527000D03*
X134064000Y-132327000D03*
X134064000Y-132727000D03*
X134064000Y-133127000D03*
X134064000Y-133527000D03*
X134064000Y-133927000D03*
X134064000Y-134327000D03*
X134064000Y-134727000D03*
X134064000Y-135127000D03*
X137714000Y-135127000D03*
X137714000Y-134727000D03*
X137714000Y-134327000D03*
X137714000Y-133927000D03*
X137714000Y-133527000D03*
X137714000Y-133127000D03*
X137714000Y-132727000D03*
X137714000Y-132327000D03*
X137714000Y-135527000D03*
X137714000Y-135927000D03*
X137714000Y-136327000D03*
X137714000Y-136727000D03*
X137714000Y-137127000D03*
X137714000Y-137527000D03*
X137714000Y-137927000D03*
D13*
X137714000Y-138927000D03*
X134064000Y-138927000D03*
X134064000Y-131327000D03*
X137714000Y-131327000D03*
M02*
